<?xml version="1.0" standalone="no"?>
<!DOCTYPE svg PUBLIC "-//W3C//DTD SVG 20010904//EN"
 "http://www.w3.org/TR/2001/REC-SVG-20010904/DTD/svg10.dtd">
<svg version="1.0" xmlns="http://www.w3.org/2000/svg"
 width="128.000000pt" height="128.000000pt" viewBox="0 0 128.000000 128.000000"
 preserveAspectRatio="xMidYMid meet">

<g transform="translate(0.000000,128.000000) scale(0.100000,-0.100000)"
fill="#000000" stroke="none">
<path d="M342 1255 c-17 -14 -33 -39 -37 -55 -7 -30 -7 -30 -81 -30 -82 0
-136 -17 -153 -48 -6 -12 -11 -65 -11 -119 l0 -99 -30 -11 -31 -12 3 -98 c3
-96 4 -98 30 -111 l28 -13 0 -214 0 -214 -27 -13 c-26 -12 -28 -18 -31 -85 -3
-63 0 -74 22 -99 l24 -29 591 0 590 0 23 23 c20 20 23 33 23 100 0 74 -1 77
-27 90 l-28 13 0 435 c0 293 -4 442 -11 456 -17 31 -71 48 -153 48 -74 0 -74
0 -81 30 -4 16 -20 41 -37 55 l-30 25 -268 0 -268 0 -30 -25z m580 -32 c15
-14 18 -32 18 -120 0 -147 6 -143 -211 -143 -157 0 -170 -1 -167 -17 3 -16 20
-18 180 -18 173 0 177 0 202 24 16 15 29 41 32 63 l7 38 63 0 64 0 2 -292 c3
-253 5 -293 18 -293 13 0 15 41 18 299 2 212 -1 303 -9 312 -8 10 -35 14 -85
14 -67 0 -74 2 -74 20 0 18 7 20 83 20 134 0 122 45 122 -467 0 -405 -1 -438
-17 -441 -15 -3 -18 8 -20 90 -2 75 -6 93 -18 93 -12 0 -16 -18 -18 -93 l-3
-93 -86 3 -87 3 -8 32 c-11 42 -60 90 -100 98 -79 16 -108 27 -108 39 0 8 18
31 40 53 28 29 41 52 46 82 5 31 13 46 30 53 13 6 26 20 30 30 7 23 -20 68
-41 68 -12 0 -15 15 -15 71 0 39 -4 79 -10 89 -15 28 -64 40 -160 40 -96 0
-145 -12 -160 -40 -6 -10 -10 -50 -10 -89 0 -56 -3 -71 -15 -71 -21 0 -48 -45
-41 -68 4 -10 17 -24 30 -30 17 -7 25 -22 30 -53 5 -30 18 -53 46 -82 22 -22
40 -45 40 -53 0 -12 -29 -23 -108 -39 -40 -8 -89 -56 -100 -98 l-8 -32 -87 -3
-87 -3 0 226 0 225 33 0 c24 0 41 -9 62 -30 37 -38 69 -37 73 3 3 22 8 27 32
27 42 0 53 27 48 127 -2 61 -7 86 -18 93 -8 5 -63 10 -122 10 l-108 0 0 75 0
75 64 0 63 0 7 -38 c3 -22 16 -48 32 -63 22 -20 35 -24 92 -24 55 0 67 3 70
18 3 15 -5 17 -57 17 -92 0 -101 13 -101 142 0 148 -22 138 298 138 233 0 268
-2 284 -17z m-622 -113 c0 -18 -7 -20 -73 -20 -43 0 -78 -5 -85 -12 -7 -7 -12
-44 -12 -95 0 -78 -1 -83 -21 -83 -20 0 -21 4 -17 101 4 125 7 129 125 129 76
0 83 -2 83 -20z m80 -324 l0 -74 -34 -6 c-22 -4 -37 -14 -41 -27 -6 -19 -8
-19 -37 6 -27 23 -37 25 -129 25 l-99 0 0 75 0 75 170 0 170 0 0 -74z m378 42
c14 -14 16 -128 3 -128 -5 0 -21 14 -35 32 l-25 32 -71 -37 c-40 -20 -83 -37
-96 -37 -23 0 -24 3 -24 63 0 36 5 68 12 75 16 16 220 16 236 0z m-43 -138
c10 -11 26 -22 36 -25 16 -5 19 -17 19 -73 0 -80 -20 -120 -73 -145 -43 -21
-67 -21 -112 -3 -50 21 -75 68 -75 142 l0 61 38 6 c20 4 57 17 82 30 57 31 63
31 85 7z m-585 -246 c0 -209 -1 -225 -17 -222 -16 3 -18 22 -21 213 -1 115 0
215 2 222 3 7 12 13 21 13 13 0 15 -30 15 -226z m340 180 c0 -8 -4 -12 -10 -9
-5 3 -10 10 -10 16 0 5 5 9 10 9 6 0 10 -7 10 -16z m360 7 c0 -6 -4 -13 -10
-16 -5 -3 -10 1 -10 9 0 9 5 16 10 16 6 0 10 -4 10 -9z m-137 -262 c15 -27 15
-29 -3 -39 -10 -5 -33 -10 -50 -10 -17 0 -40 5 -50 10 -18 10 -18 12 -3 39 14
23 24 28 53 28 29 0 39 -5 53 -28z m-135 -64 c50 -34 114 -34 165 0 30 21 44
25 73 19 42 -8 92 -49 96 -79 3 -18 -3 -20 -67 -23 -79 -3 -95 -13 -95 -53 l0
-29 -90 0 -90 0 0 29 c0 40 -16 50 -95 53 -64 3 -70 5 -67 23 7 41 63 80 120
84 7 1 30 -10 50 -24z m-48 -142 c0 -51 23 -63 124 -63 106 0 136 13 136 61
l0 29 235 0 235 0 0 -59 c0 -41 -5 -65 -16 -75 -14 -14 -80 -16 -584 -16 -504
0 -570 2 -584 16 -11 10 -16 34 -16 75 l0 59 235 0 235 0 0 -27z"/>
<path d="M386 1203 c-3 -4 -6 -51 -6 -105 l0 -99 47 3 c53 3 74 28 24 28 l-31
0 0 84 c0 63 -4 85 -14 89 -8 3 -17 3 -20 0z"/>
<path d="M526 1203 c-3 -3 -6 -51 -6 -105 0 -80 3 -98 15 -98 12 0 15 18 15
99 0 91 -7 121 -24 104z"/>
<path d="M602 1201 c-9 -6 -4 -31 20 -102 26 -75 37 -94 52 -94 15 0 25 18 49
88 16 48 26 95 23 104 -10 25 -28 1 -52 -70 l-21 -62 -22 67 c-24 73 -30 81
-49 69z"/>
<path d="M790 1100 l0 -100 55 0 c42 0 55 3 55 15 0 10 -11 15 -35 15 -30 0
-35 3 -35 24 0 19 6 25 27 28 17 2 29 10 31 21 3 13 -3 17 -27 17 -26 0 -31 4
-31 25 0 22 4 25 35 25 24 0 35 5 35 15 0 12 -13 15 -55 15 l-55 0 0 -100z"/>
<path d="M102 783 c3 -15 17 -18 98 -21 95 -2 129 6 116 27 -5 7 -46 11 -112
11 -95 0 -105 -2 -102 -17z"/>
<path d="M554 626 c-8 -21 -1 -49 14 -54 8 -2 12 8 12 32 0 36 -16 49 -26 22z"/>
<path d="M700 605 c0 -25 4 -35 13 -32 6 2 12 16 12 32 0 16 -6 30 -12 33 -9
2 -13 -8 -13 -33z"/>
<path d="M593 497 c-7 -12 25 -37 47 -37 22 0 57 27 47 36 -11 12 -87 12 -94
1z"/>
</g>
</svg>
